<?xml version="1.0" standalone="no"?>
<!DOCTYPE svg PUBLIC "-//W3C//DTD SVG 20010904//EN"
 "http://www.w3.org/TR/2001/REC-SVG-20010904/DTD/svg10.dtd">
<svg version="1.0" xmlns="http://www.w3.org/2000/svg"
 width="512.000000pt" height="512.000000pt" viewBox="0 0 512.000000 512.000000"
 preserveAspectRatio="xMidYMid meet">

<g transform="translate(0.000000,512.000000) scale(0.100000,-0.100000)"
fill="#00BFFF" stroke="red">
<path d="M1910 4885 c-282 -53 -532 -224 -739 -504 l-62 -85 -128 -62 c-167
-81 -320 -185 -433 -292 -143 -136 -278 -321 -278 -380 0 -54 51 -86 104 -66
8 3 45 52 82 107 208 315 613 568 1029 643 109 19 323 25 438 11 l67 -9 -22
-27 c-123 -150 -158 -198 -158 -221 0 -56 57 -93 104 -68 13 7 43 38 67 68
218 279 484 477 726 541 432 114 900 -209 1051 -726 58 -198 76 -366 69 -650
-14 -566 -134 -897 -440 -1219 -63 -66 -71 -97 -37 -134 14 -15 33 -22 58 -22
33 0 45 8 105 71 200 208 339 468 406 759 43 188 56 331 56 625 0 247 -3 294
-23 397 -12 64 -22 120 -22 123 0 10 89 -6 178 -31 217 -63 382 -193 530 -417
73 -111 101 -132 146 -107 32 17 50 59 38 91 -20 51 -140 217 -211 292 -41 43
-104 101 -140 128 -135 102 -343 181 -518 196 l-71 6 -18 46 c-81 216 -240
427 -416 552 -204 143 -444 214 -643 190 l-86 -10 -86 49 c-95 54 -221 103
-328 127 -98 21 -302 26 -395 8z m401 -164 c42 -10 107 -33 144 -50 l69 -31
-78 -40 c-88 -45 -197 -118 -275 -185 -32 -28 -60 -44 -69 -40 -35 13 -188 35
-293 41 -118 7 -291 -7 -393 -30 -51 -12 -55 -12 -46 4 17 32 169 167 241 215
110 72 220 116 344 136 81 13 271 3 356 -20z"/>
<path d="M162 3335 c-22 -28 -73 -204 -102 -350 -67 -352 -77 -867 -24 -1420
41 -441 126 -1017 166 -1123 30 -81 130 -180 213 -212 202 -76 420 8 511 197
45 93 43 174 -10 607 -25 203 -44 371 -42 373 2 2 43 -8 92 -22 131 -38 244
-55 364 -55 l107 0 17 -60 c27 -95 159 -490 220 -660 62 -168 95 -228 160
-288 107 -99 197 -126 400 -120 138 3 142 4 219 40 91 43 172 119 211 195 14
28 37 99 52 157 l27 106 470 -2 470 -3 28 -108 c35 -134 66 -191 139 -261 102
-97 188 -126 380 -126 186 0 275 29 376 122 62 57 94 113 169 293 322 771 421
1509 279 2069 -30 120 -91 310 -111 349 -29 57 -109 56 -133 -3 -10 -24 -6
-44 28 -147 141 -416 165 -763 85 -1238 -48 -288 -159 -666 -289 -979 -69
-166 -103 -220 -167 -263 -70 -47 -113 -55 -262 -51 -117 3 -135 6 -181 30
-59 31 -112 86 -136 143 -10 22 -31 96 -49 165 -17 69 -38 133 -46 143 -15 16
-56 17 -579 17 -546 0 -564 -1 -581 -20 -11 -11 -31 -70 -47 -137 -49 -209
-107 -292 -229 -328 -59 -17 -243 -20 -299 -5 -53 15 -128 69 -160 115 -35 50
-103 232 -219 584 -92 281 -93 290 -48 291 37 0 212 50 310 89 58 22 157 71
220 107 107 62 116 65 144 54 233 -94 283 -104 463 -98 151 5 249 29 373 91
95 48 116 76 88 125 -27 48 -57 50 -154 8 -128 -55 -221 -76 -340 -76 -240 0
-442 99 -642 316 -76 82 -91 94 -120 94 -41 0 -73 -30 -73 -69 0 -37 49 -99
160 -205 63 -60 79 -81 69 -88 -8 -5 -63 -34 -122 -64 -212 -108 -401 -154
-626 -154 -199 0 -390 39 -524 107 -62 31 -113 28 -138 -7 -18 -24 -18 -35 36
-474 30 -246 55 -476 55 -510 -1 -78 -24 -130 -83 -183 -121 -105 -306 -71
-379 70 -39 77 -127 693 -174 1222 -24 272 -25 817 -1 1015 22 175 58 361 92
467 14 43 25 90 25 106 0 63 -89 92 -128 42z"/>
<path d="M1361 2594 c-18 -10 -45 -35 -60 -58 -22 -34 -26 -50 -26 -116 0 -67
3 -82 28 -119 66 -100 188 -91 245 19 43 85 20 213 -49 263 -37 26 -97 31
-138 11z"/>
</g>
</svg>
